M48
;DRILL file {KiCad 4.0.7} date 06/29/18 23:59:37
;FORMAT={-:-/ absolute / inch / decimal}
FMAT,2
INCH,TZ
T1C0.016
T2C0.031
T3C0.039
T4C0.083
T5C0.130
%
G90
G05
M72
T1
X2.04Y-4.9
X2.275Y-4.895
X2.56Y-4.885
X3.005Y-4.885
X3.41Y-4.88
X3.795Y-4.875
X4.115Y-4.875
X4.74Y-4.885
X5.555Y-4.88
X6.41Y-4.88
X6.42Y-5.335
X6.715Y-5.255
X6.865Y-5.255
X6.87Y-5.11
X6.98Y-4.88
X7.205Y-5.255
X7.21Y-5.1
X7.32Y-5.335
X7.355Y-5.255
X7.43Y-4.895
X7.87Y-4.89
X8.24Y-5.325
X8.3Y-4.89
X8.75Y-4.885
X9.02Y-5.465
X9.11Y-5.535
X9.115Y-5.375
X9.135Y-5.46
X9.28Y-5.53
X9.39Y-4.885
X9.58Y-5.59
X9.61Y-5.69
X9.645Y-5.68
X9.75Y-5.32
X9.775Y-5.345
X9.86Y-4.885
X9.92Y-5.35
X9.92Y-5.585
X10.01Y-5.6
X10.02Y-5.46
X10.035Y-5.365
X10.07Y-5.09
X10.145Y-5.17
X10.15Y-5.675
X10.19Y-5.095
X10.235Y-5.36
X10.31Y-5.215
X10.35Y-5.115
X10.45Y-4.885
X10.905Y-4.885
T2
X2.4423Y-5.4354
X2.5423Y-5.4354
X2.6423Y-5.4354
X3.342Y-5.4354
X3.442Y-5.4354
X3.542Y-5.4354
X4.2417Y-5.4354
X4.3417Y-5.4354
X4.4417Y-5.4354
X5.1413Y-5.4354
X5.2413Y-5.4354
X5.3413Y-5.4354
X6.041Y-5.4354
X6.141Y-5.4354
X6.241Y-5.4354
X6.9407Y-5.4354
X7.0407Y-5.4354
X7.1407Y-5.4354
X7.8404Y-5.4354
X7.9404Y-5.4354
X8.0404Y-5.4354
X8.74Y-5.4354
X8.84Y-5.4354
X8.94Y-5.4354
X10.5394Y-5.4354
X10.6394Y-5.4354
X10.7394Y-5.4354
T3
X9.5897Y-5.1319
X9.5897Y-5.2319
X9.6897Y-5.1319
X9.6897Y-5.2319
X9.7897Y-5.1319
X9.7897Y-5.2319
X9.8897Y-5.1319
X9.8897Y-5.2319
T4
X2.3612Y-5.3527
X2.5423Y-5.5889
X2.7234Y-5.3527
X3.2609Y-5.3527
X3.442Y-5.5889
X3.6231Y-5.3527
X4.1606Y-5.3527
X4.3417Y-5.5889
X4.5228Y-5.3527
X5.0602Y-5.3527
X5.2413Y-5.5889
X5.4224Y-5.3527
X5.9599Y-5.3527
X6.141Y-5.5889
X6.3221Y-5.3527
X6.8596Y-5.3527
X7.0407Y-5.5889
X7.2218Y-5.3527
X7.7593Y-5.3527
X7.9404Y-5.5889
X8.1215Y-5.3527
X8.6589Y-5.3527
X8.84Y-5.5889
X9.0211Y-5.3527
X10.4583Y-5.3527
X10.6394Y-5.5889
X10.8205Y-5.3527
T5
X10.4894Y-5.5854
X10.7894Y-5.5854
T0
M30
