G04 #@! TF.FileFunction,Soldermask,Bot*
%FSLAX46Y46*%
G04 Gerber Fmt 4.6, Leading zero omitted, Abs format (unit mm)*
G04 Created by KiCad (PCBNEW 4.0.7) date 06/29/18 22:45:00*
%MOMM*%
%LPD*%
G01*
G04 APERTURE LIST*
%ADD10C,0.100000*%
%ADD11C,2.500000*%
%ADD12C,1.700000*%
%ADD13C,3.700000*%
%ADD14R,2.100000X2.100000*%
%ADD15O,2.100000X2.100000*%
G04 APERTURE END LIST*
D10*
D11*
X265640000Y-135958000D03*
D12*
X270240000Y-138058000D03*
X267700000Y-138058000D03*
X272780000Y-138058000D03*
D11*
X270240000Y-141958000D03*
X274840000Y-135958000D03*
D13*
X274050000Y-141868000D03*
X266430000Y-141868000D03*
D11*
X219936667Y-135958000D03*
D12*
X224536667Y-138058000D03*
X221996667Y-138058000D03*
X227076667Y-138058000D03*
D11*
X224536667Y-141958000D03*
X229136667Y-135958000D03*
X197085000Y-135958000D03*
D12*
X201685000Y-138058000D03*
X199145000Y-138058000D03*
X204225000Y-138058000D03*
D11*
X201685000Y-141958000D03*
X206285000Y-135958000D03*
X174233333Y-135958000D03*
D12*
X178833333Y-138058000D03*
X176293333Y-138058000D03*
X181373333Y-138058000D03*
D11*
X178833333Y-141958000D03*
X183433333Y-135958000D03*
X151381667Y-135958000D03*
D12*
X155981667Y-138058000D03*
X153441667Y-138058000D03*
X158521667Y-138058000D03*
D11*
X155981667Y-141958000D03*
X160581667Y-135958000D03*
X128530000Y-135958000D03*
D12*
X133130000Y-138058000D03*
X130590000Y-138058000D03*
X135670000Y-138058000D03*
D11*
X133130000Y-141958000D03*
X137730000Y-135958000D03*
X105678333Y-135958000D03*
D12*
X110278333Y-138058000D03*
X107738333Y-138058000D03*
X112818333Y-138058000D03*
D11*
X110278333Y-141958000D03*
X114878333Y-135958000D03*
X82826667Y-135958000D03*
D12*
X87426667Y-138058000D03*
X84886667Y-138058000D03*
X89966667Y-138058000D03*
D11*
X87426667Y-141958000D03*
X92026667Y-135958000D03*
X59975000Y-135958000D03*
D12*
X64575000Y-138058000D03*
X62035000Y-138058000D03*
X67115000Y-138058000D03*
D11*
X64575000Y-141958000D03*
X69175000Y-135958000D03*
D14*
X243578333Y-132891333D03*
D15*
X243578333Y-130351333D03*
X246118333Y-132891333D03*
X246118333Y-130351333D03*
X248658333Y-132891333D03*
X248658333Y-130351333D03*
X251198333Y-132891333D03*
X251198333Y-130351333D03*
M02*
