G04 #@! TF.FileFunction,Legend,Top*
%FSLAX46Y46*%
G04 Gerber Fmt 4.6, Leading zero omitted, Abs format (unit mm)*
G04 Created by KiCad (PCBNEW 4.0.7) date 06/29/18 22:45:00*
%MOMM*%
%LPD*%
G01*
G04 APERTURE LIST*
%ADD10C,0.100000*%
%ADD11C,0.300000*%
%ADD12C,0.150000*%
%ADD13C,0.120000*%
G04 APERTURE END LIST*
D10*
D11*
X205483143Y-125924571D02*
X206340286Y-125924571D01*
X205911715Y-127424571D02*
X205911715Y-125924571D01*
X206840286Y-127424571D02*
X206840286Y-126424571D01*
X206840286Y-125924571D02*
X206768857Y-125996000D01*
X206840286Y-126067429D01*
X206911714Y-125996000D01*
X206840286Y-125924571D01*
X206840286Y-126067429D01*
X207554572Y-126424571D02*
X207554572Y-127424571D01*
X207554572Y-126567429D02*
X207626000Y-126496000D01*
X207768858Y-126424571D01*
X207983143Y-126424571D01*
X208126000Y-126496000D01*
X208197429Y-126638857D01*
X208197429Y-127424571D01*
X208911715Y-127424571D02*
X208911715Y-125924571D01*
X209054572Y-126853143D02*
X209483143Y-127424571D01*
X209483143Y-126424571D02*
X208911715Y-126996000D01*
X210697429Y-127353143D02*
X210554572Y-127424571D01*
X210268858Y-127424571D01*
X210126001Y-127353143D01*
X210054572Y-127210286D01*
X210054572Y-126638857D01*
X210126001Y-126496000D01*
X210268858Y-126424571D01*
X210554572Y-126424571D01*
X210697429Y-126496000D01*
X210768858Y-126638857D01*
X210768858Y-126781714D01*
X210054572Y-126924571D01*
X211411715Y-127424571D02*
X211411715Y-126424571D01*
X211411715Y-126710286D02*
X211483143Y-126567429D01*
X211554572Y-126496000D01*
X211697429Y-126424571D01*
X211840286Y-126424571D01*
X212340286Y-126424571D02*
X212340286Y-127924571D01*
X212340286Y-126496000D02*
X212483143Y-126424571D01*
X212768857Y-126424571D01*
X212911714Y-126496000D01*
X212983143Y-126567429D01*
X213054572Y-126710286D01*
X213054572Y-127138857D01*
X212983143Y-127281714D01*
X212911714Y-127353143D01*
X212768857Y-127424571D01*
X212483143Y-127424571D01*
X212340286Y-127353143D01*
X213911715Y-127424571D02*
X213768857Y-127353143D01*
X213697429Y-127210286D01*
X213697429Y-125924571D01*
X215126000Y-126424571D02*
X215126000Y-127424571D01*
X214483143Y-126424571D02*
X214483143Y-127210286D01*
X214554571Y-127353143D01*
X214697429Y-127424571D01*
X214911714Y-127424571D01*
X215054571Y-127353143D01*
X215126000Y-127281714D01*
X215840286Y-126424571D02*
X215840286Y-127424571D01*
X215840286Y-126567429D02*
X215911714Y-126496000D01*
X216054572Y-126424571D01*
X216268857Y-126424571D01*
X216411714Y-126496000D01*
X216483143Y-126638857D01*
X216483143Y-127424571D01*
X217197429Y-127424571D02*
X217197429Y-125924571D01*
X217340286Y-126853143D02*
X217768857Y-127424571D01*
X217768857Y-126424571D02*
X217197429Y-126996000D01*
X218411715Y-127281714D02*
X218483143Y-127353143D01*
X218411715Y-127424571D01*
X218340286Y-127353143D01*
X218411715Y-127281714D01*
X218411715Y-127424571D01*
X219768858Y-127353143D02*
X219626001Y-127424571D01*
X219340287Y-127424571D01*
X219197429Y-127353143D01*
X219126001Y-127281714D01*
X219054572Y-127138857D01*
X219054572Y-126710286D01*
X219126001Y-126567429D01*
X219197429Y-126496000D01*
X219340287Y-126424571D01*
X219626001Y-126424571D01*
X219768858Y-126496000D01*
X220626001Y-127424571D02*
X220483143Y-127353143D01*
X220411715Y-127281714D01*
X220340286Y-127138857D01*
X220340286Y-126710286D01*
X220411715Y-126567429D01*
X220483143Y-126496000D01*
X220626001Y-126424571D01*
X220840286Y-126424571D01*
X220983143Y-126496000D01*
X221054572Y-126567429D01*
X221126001Y-126710286D01*
X221126001Y-127138857D01*
X221054572Y-127281714D01*
X220983143Y-127353143D01*
X220840286Y-127424571D01*
X220626001Y-127424571D01*
X221768858Y-127424571D02*
X221768858Y-126424571D01*
X221768858Y-126567429D02*
X221840286Y-126496000D01*
X221983144Y-126424571D01*
X222197429Y-126424571D01*
X222340286Y-126496000D01*
X222411715Y-126638857D01*
X222411715Y-127424571D01*
X222411715Y-126638857D02*
X222483144Y-126496000D01*
X222626001Y-126424571D01*
X222840286Y-126424571D01*
X222983144Y-126496000D01*
X223054572Y-126638857D01*
X223054572Y-127424571D01*
X94478715Y-126821429D02*
X94335857Y-126750000D01*
X94264429Y-126678571D01*
X94193000Y-126535714D01*
X94193000Y-126464286D01*
X94264429Y-126321429D01*
X94335857Y-126250000D01*
X94478715Y-126178571D01*
X94764429Y-126178571D01*
X94907286Y-126250000D01*
X94978715Y-126321429D01*
X95050143Y-126464286D01*
X95050143Y-126535714D01*
X94978715Y-126678571D01*
X94907286Y-126750000D01*
X94764429Y-126821429D01*
X94478715Y-126821429D01*
X94335857Y-126892857D01*
X94264429Y-126964286D01*
X94193000Y-127107143D01*
X94193000Y-127392857D01*
X94264429Y-127535714D01*
X94335857Y-127607143D01*
X94478715Y-127678571D01*
X94764429Y-127678571D01*
X94907286Y-127607143D01*
X94978715Y-127535714D01*
X95050143Y-127392857D01*
X95050143Y-127107143D01*
X94978715Y-126964286D01*
X94907286Y-126892857D01*
X94764429Y-126821429D01*
X96835857Y-127678571D02*
X96835857Y-126178571D01*
X97407285Y-126178571D01*
X97550143Y-126250000D01*
X97621571Y-126321429D01*
X97693000Y-126464286D01*
X97693000Y-126678571D01*
X97621571Y-126821429D01*
X97550143Y-126892857D01*
X97407285Y-126964286D01*
X96835857Y-126964286D01*
X98550143Y-127678571D02*
X98407285Y-127607143D01*
X98335857Y-127535714D01*
X98264428Y-127392857D01*
X98264428Y-126964286D01*
X98335857Y-126821429D01*
X98407285Y-126750000D01*
X98550143Y-126678571D01*
X98764428Y-126678571D01*
X98907285Y-126750000D01*
X98978714Y-126821429D01*
X99050143Y-126964286D01*
X99050143Y-127392857D01*
X98978714Y-127535714D01*
X98907285Y-127607143D01*
X98764428Y-127678571D01*
X98550143Y-127678571D01*
X99693000Y-127678571D02*
X99693000Y-126678571D01*
X99693000Y-126964286D02*
X99764428Y-126821429D01*
X99835857Y-126750000D01*
X99978714Y-126678571D01*
X100121571Y-126678571D01*
X100407285Y-126678571D02*
X100978714Y-126678571D01*
X100621571Y-126178571D02*
X100621571Y-127464286D01*
X100692999Y-127607143D01*
X100835857Y-127678571D01*
X100978714Y-127678571D01*
X102407285Y-126178571D02*
X103264428Y-126178571D01*
X102835857Y-127678571D02*
X102835857Y-126178571D01*
X104050142Y-126178571D02*
X104335856Y-126178571D01*
X104478714Y-126250000D01*
X104621571Y-126392857D01*
X104692999Y-126678571D01*
X104692999Y-127178571D01*
X104621571Y-127464286D01*
X104478714Y-127607143D01*
X104335856Y-127678571D01*
X104050142Y-127678571D01*
X103907285Y-127607143D01*
X103764428Y-127464286D01*
X103692999Y-127178571D01*
X103692999Y-126678571D01*
X103764428Y-126392857D01*
X103907285Y-126250000D01*
X104050142Y-126178571D01*
X105264428Y-127607143D02*
X105478714Y-127678571D01*
X105835857Y-127678571D01*
X105978714Y-127607143D01*
X106050143Y-127535714D01*
X106121571Y-127392857D01*
X106121571Y-127250000D01*
X106050143Y-127107143D01*
X105978714Y-127035714D01*
X105835857Y-126964286D01*
X105550143Y-126892857D01*
X105407285Y-126821429D01*
X105335857Y-126750000D01*
X105264428Y-126607143D01*
X105264428Y-126464286D01*
X105335857Y-126321429D01*
X105407285Y-126250000D01*
X105550143Y-126178571D01*
X105907285Y-126178571D01*
X106121571Y-126250000D01*
X107478714Y-127678571D02*
X106764428Y-127678571D01*
X106764428Y-126178571D01*
X107978714Y-127678571D02*
X107978714Y-126178571D01*
X108693000Y-127678571D02*
X108693000Y-126178571D01*
X109550143Y-127678571D01*
X109550143Y-126178571D01*
X110264429Y-127678571D02*
X110264429Y-126178571D01*
X111121572Y-127678571D02*
X110478715Y-126821429D01*
X111121572Y-126178571D02*
X110264429Y-127035714D01*
X112835857Y-127607143D02*
X113050143Y-127678571D01*
X113407286Y-127678571D01*
X113550143Y-127607143D01*
X113621572Y-127535714D01*
X113693000Y-127392857D01*
X113693000Y-127250000D01*
X113621572Y-127107143D01*
X113550143Y-127035714D01*
X113407286Y-126964286D01*
X113121572Y-126892857D01*
X112978714Y-126821429D01*
X112907286Y-126750000D01*
X112835857Y-126607143D01*
X112835857Y-126464286D01*
X112907286Y-126321429D01*
X112978714Y-126250000D01*
X113121572Y-126178571D01*
X113478714Y-126178571D01*
X113693000Y-126250000D01*
X114193000Y-126678571D02*
X114478714Y-127678571D01*
X114764428Y-126964286D01*
X115050143Y-127678571D01*
X115335857Y-126678571D01*
X115907286Y-127678571D02*
X115907286Y-126678571D01*
X115907286Y-126178571D02*
X115835857Y-126250000D01*
X115907286Y-126321429D01*
X115978714Y-126250000D01*
X115907286Y-126178571D01*
X115907286Y-126321429D01*
X116407286Y-126678571D02*
X116978715Y-126678571D01*
X116621572Y-126178571D02*
X116621572Y-127464286D01*
X116693000Y-127607143D01*
X116835858Y-127678571D01*
X116978715Y-127678571D01*
X118121572Y-127607143D02*
X117978715Y-127678571D01*
X117693001Y-127678571D01*
X117550143Y-127607143D01*
X117478715Y-127535714D01*
X117407286Y-127392857D01*
X117407286Y-126964286D01*
X117478715Y-126821429D01*
X117550143Y-126750000D01*
X117693001Y-126678571D01*
X117978715Y-126678571D01*
X118121572Y-126750000D01*
X118764429Y-127678571D02*
X118764429Y-126178571D01*
X119407286Y-127678571D02*
X119407286Y-126892857D01*
X119335857Y-126750000D01*
X119193000Y-126678571D01*
X118978715Y-126678571D01*
X118835857Y-126750000D01*
X118764429Y-126821429D01*
X121050143Y-126678571D02*
X121621572Y-126678571D01*
X121264429Y-127678571D02*
X121264429Y-126392857D01*
X121335857Y-126250000D01*
X121478715Y-126178571D01*
X121621572Y-126178571D01*
X122335858Y-127678571D02*
X122193000Y-127607143D01*
X122121572Y-127535714D01*
X122050143Y-127392857D01*
X122050143Y-126964286D01*
X122121572Y-126821429D01*
X122193000Y-126750000D01*
X122335858Y-126678571D01*
X122550143Y-126678571D01*
X122693000Y-126750000D01*
X122764429Y-126821429D01*
X122835858Y-126964286D01*
X122835858Y-127392857D01*
X122764429Y-127535714D01*
X122693000Y-127607143D01*
X122550143Y-127678571D01*
X122335858Y-127678571D01*
X123478715Y-127678571D02*
X123478715Y-126678571D01*
X123478715Y-126964286D02*
X123550143Y-126821429D01*
X123621572Y-126750000D01*
X123764429Y-126678571D01*
X123907286Y-126678571D01*
X126193000Y-126678571D02*
X126193000Y-127892857D01*
X126121571Y-128035714D01*
X126050143Y-128107143D01*
X125907286Y-128178571D01*
X125693000Y-128178571D01*
X125550143Y-128107143D01*
X126193000Y-127607143D02*
X126050143Y-127678571D01*
X125764429Y-127678571D01*
X125621571Y-127607143D01*
X125550143Y-127535714D01*
X125478714Y-127392857D01*
X125478714Y-126964286D01*
X125550143Y-126821429D01*
X125621571Y-126750000D01*
X125764429Y-126678571D01*
X126050143Y-126678571D01*
X126193000Y-126750000D01*
X126835857Y-127607143D02*
X126978714Y-127678571D01*
X127264429Y-127678571D01*
X127407286Y-127607143D01*
X127478714Y-127464286D01*
X127478714Y-127392857D01*
X127407286Y-127250000D01*
X127264429Y-127178571D01*
X127050143Y-127178571D01*
X126907286Y-127107143D01*
X126835857Y-126964286D01*
X126835857Y-126892857D01*
X126907286Y-126750000D01*
X127050143Y-126678571D01*
X127264429Y-126678571D01*
X127407286Y-126750000D01*
X128764429Y-127607143D02*
X128621572Y-127678571D01*
X128335858Y-127678571D01*
X128193000Y-127607143D01*
X128121572Y-127535714D01*
X128050143Y-127392857D01*
X128050143Y-126964286D01*
X128121572Y-126821429D01*
X128193000Y-126750000D01*
X128335858Y-126678571D01*
X128621572Y-126678571D01*
X128764429Y-126750000D01*
X130050143Y-127678571D02*
X130050143Y-126892857D01*
X129978714Y-126750000D01*
X129835857Y-126678571D01*
X129550143Y-126678571D01*
X129407286Y-126750000D01*
X130050143Y-127607143D02*
X129907286Y-127678571D01*
X129550143Y-127678571D01*
X129407286Y-127607143D01*
X129335857Y-127464286D01*
X129335857Y-127321429D01*
X129407286Y-127178571D01*
X129550143Y-127107143D01*
X129907286Y-127107143D01*
X130050143Y-127035714D01*
X130764429Y-127678571D02*
X130764429Y-126678571D01*
X130764429Y-126964286D02*
X130835857Y-126821429D01*
X130907286Y-126750000D01*
X131050143Y-126678571D01*
X131193000Y-126678571D01*
X131478714Y-126678571D02*
X132050143Y-126678571D01*
X131693000Y-126178571D02*
X131693000Y-127464286D01*
X131764428Y-127607143D01*
X131907286Y-127678571D01*
X132050143Y-127678571D01*
X132193000Y-127821429D02*
X133335857Y-127821429D01*
X133907286Y-127678571D02*
X133764428Y-127607143D01*
X133693000Y-127464286D01*
X133693000Y-126178571D01*
X134478714Y-127678571D02*
X134478714Y-126678571D01*
X134478714Y-126178571D02*
X134407285Y-126250000D01*
X134478714Y-126321429D01*
X134550142Y-126250000D01*
X134478714Y-126178571D01*
X134478714Y-126321429D01*
X134978714Y-126678571D02*
X135550143Y-126678571D01*
X135193000Y-126178571D02*
X135193000Y-127464286D01*
X135264428Y-127607143D01*
X135407286Y-127678571D01*
X135550143Y-127678571D01*
X136621571Y-127607143D02*
X136478714Y-127678571D01*
X136193000Y-127678571D01*
X136050143Y-127607143D01*
X135978714Y-127464286D01*
X135978714Y-126892857D01*
X136050143Y-126750000D01*
X136193000Y-126678571D01*
X136478714Y-126678571D01*
X136621571Y-126750000D01*
X136693000Y-126892857D01*
X136693000Y-127035714D01*
X135978714Y-127178571D01*
D12*
X276240000Y-146558000D02*
X276240000Y-134558000D01*
X276240000Y-134558000D02*
X264240000Y-134558000D01*
X264240000Y-134558000D02*
X264240000Y-146558000D01*
X264240000Y-146558000D02*
X276240000Y-146558000D01*
X230536667Y-146558000D02*
X230536667Y-134558000D01*
X230536667Y-134558000D02*
X218536667Y-134558000D01*
X218536667Y-134558000D02*
X218536667Y-146558000D01*
X218536667Y-146558000D02*
X230536667Y-146558000D01*
X207685000Y-146558000D02*
X207685000Y-134558000D01*
X207685000Y-134558000D02*
X195685000Y-134558000D01*
X195685000Y-134558000D02*
X195685000Y-146558000D01*
X195685000Y-146558000D02*
X207685000Y-146558000D01*
X184833333Y-146558000D02*
X184833333Y-134558000D01*
X184833333Y-134558000D02*
X172833333Y-134558000D01*
X172833333Y-134558000D02*
X172833333Y-146558000D01*
X172833333Y-146558000D02*
X184833333Y-146558000D01*
X161981667Y-146558000D02*
X161981667Y-134558000D01*
X161981667Y-134558000D02*
X149981667Y-134558000D01*
X149981667Y-134558000D02*
X149981667Y-146558000D01*
X149981667Y-146558000D02*
X161981667Y-146558000D01*
X139130000Y-146558000D02*
X139130000Y-134558000D01*
X139130000Y-134558000D02*
X127130000Y-134558000D01*
X127130000Y-134558000D02*
X127130000Y-146558000D01*
X127130000Y-146558000D02*
X139130000Y-146558000D01*
X116278333Y-146558000D02*
X116278333Y-134558000D01*
X116278333Y-134558000D02*
X104278333Y-134558000D01*
X104278333Y-134558000D02*
X104278333Y-146558000D01*
X104278333Y-146558000D02*
X116278333Y-146558000D01*
X93426667Y-146558000D02*
X93426667Y-134558000D01*
X93426667Y-134558000D02*
X81426667Y-134558000D01*
X81426667Y-134558000D02*
X81426667Y-146558000D01*
X81426667Y-146558000D02*
X93426667Y-146558000D01*
X70575000Y-146558000D02*
X70575000Y-134558000D01*
X70575000Y-134558000D02*
X58575000Y-134558000D01*
X58575000Y-134558000D02*
X58575000Y-146558000D01*
X58575000Y-146558000D02*
X70575000Y-146558000D01*
D13*
X53787500Y-141408000D02*
X54787500Y-141408000D01*
X54787500Y-139708000D02*
X53787500Y-139708000D01*
X75500834Y-141408000D02*
X76500834Y-141408000D01*
X76500834Y-139708000D02*
X75500834Y-139708000D01*
X98352500Y-141408000D02*
X99352500Y-141408000D01*
X99352500Y-139708000D02*
X98352500Y-139708000D01*
X121204167Y-141408000D02*
X122204167Y-141408000D01*
X122204167Y-139708000D02*
X121204167Y-139708000D01*
X144055834Y-141408000D02*
X145055834Y-141408000D01*
X145055834Y-139708000D02*
X144055834Y-139708000D01*
X166907500Y-141408000D02*
X167907500Y-141408000D01*
X167907500Y-139708000D02*
X166907500Y-139708000D01*
X189759167Y-141408000D02*
X190759167Y-141408000D01*
X190759167Y-139708000D02*
X189759167Y-139708000D01*
X212610834Y-141408000D02*
X213610834Y-141408000D01*
X213610834Y-139708000D02*
X212610834Y-139708000D01*
X260600000Y-139708000D02*
X259600000Y-139708000D01*
X259600000Y-141408000D02*
X260600000Y-141408000D01*
X252528333Y-134221333D02*
X252528333Y-129021333D01*
X244848333Y-134221333D02*
X252528333Y-134221333D01*
X242248333Y-129021333D02*
X252528333Y-129021333D01*
X244848333Y-134221333D02*
X244848333Y-131621333D01*
X244848333Y-131621333D02*
X242248333Y-131621333D01*
X242248333Y-131621333D02*
X242248333Y-129021333D01*
X243578333Y-134221333D02*
X242248333Y-134221333D01*
X242248333Y-134221333D02*
X242248333Y-132891333D01*
D12*
X244594800Y-137855600D02*
X244594800Y-142255600D01*
X250119800Y-136280600D02*
X250119800Y-142255600D01*
X268763809Y-135110381D02*
X268954286Y-135110381D01*
X269049524Y-135158000D01*
X269144762Y-135253238D01*
X269192381Y-135443714D01*
X269192381Y-135777048D01*
X269144762Y-135967524D01*
X269049524Y-136062762D01*
X268954286Y-136110381D01*
X268763809Y-136110381D01*
X268668571Y-136062762D01*
X268573333Y-135967524D01*
X268525714Y-135777048D01*
X268525714Y-135443714D01*
X268573333Y-135253238D01*
X268668571Y-135158000D01*
X268763809Y-135110381D01*
X269620952Y-135110381D02*
X269620952Y-135919905D01*
X269668571Y-136015143D01*
X269716190Y-136062762D01*
X269811428Y-136110381D01*
X270001905Y-136110381D01*
X270097143Y-136062762D01*
X270144762Y-136015143D01*
X270192381Y-135919905D01*
X270192381Y-135110381D01*
X270525714Y-135110381D02*
X271097143Y-135110381D01*
X270811428Y-136110381D02*
X270811428Y-135110381D01*
X271954286Y-136110381D02*
X271382857Y-136110381D01*
X271668571Y-136110381D02*
X271668571Y-135110381D01*
X271573333Y-135253238D01*
X271478095Y-135348476D01*
X271382857Y-135396095D01*
X223536667Y-136110381D02*
X223536667Y-135110381D01*
X224012857Y-136110381D02*
X224012857Y-135110381D01*
X224584286Y-136110381D01*
X224584286Y-135110381D01*
X225203333Y-135538952D02*
X225108095Y-135491333D01*
X225060476Y-135443714D01*
X225012857Y-135348476D01*
X225012857Y-135300857D01*
X225060476Y-135205619D01*
X225108095Y-135158000D01*
X225203333Y-135110381D01*
X225393810Y-135110381D01*
X225489048Y-135158000D01*
X225536667Y-135205619D01*
X225584286Y-135300857D01*
X225584286Y-135348476D01*
X225536667Y-135443714D01*
X225489048Y-135491333D01*
X225393810Y-135538952D01*
X225203333Y-135538952D01*
X225108095Y-135586571D01*
X225060476Y-135634190D01*
X225012857Y-135729429D01*
X225012857Y-135919905D01*
X225060476Y-136015143D01*
X225108095Y-136062762D01*
X225203333Y-136110381D01*
X225393810Y-136110381D01*
X225489048Y-136062762D01*
X225536667Y-136015143D01*
X225584286Y-135919905D01*
X225584286Y-135729429D01*
X225536667Y-135634190D01*
X225489048Y-135586571D01*
X225393810Y-135538952D01*
X200685000Y-136110381D02*
X200685000Y-135110381D01*
X201161190Y-136110381D02*
X201161190Y-135110381D01*
X201732619Y-136110381D01*
X201732619Y-135110381D01*
X202113571Y-135110381D02*
X202780238Y-135110381D01*
X202351666Y-136110381D01*
X177833333Y-136110381D02*
X177833333Y-135110381D01*
X178309523Y-136110381D02*
X178309523Y-135110381D01*
X178880952Y-136110381D01*
X178880952Y-135110381D01*
X179785714Y-135110381D02*
X179595237Y-135110381D01*
X179499999Y-135158000D01*
X179452380Y-135205619D01*
X179357142Y-135348476D01*
X179309523Y-135538952D01*
X179309523Y-135919905D01*
X179357142Y-136015143D01*
X179404761Y-136062762D01*
X179499999Y-136110381D01*
X179690476Y-136110381D01*
X179785714Y-136062762D01*
X179833333Y-136015143D01*
X179880952Y-135919905D01*
X179880952Y-135681810D01*
X179833333Y-135586571D01*
X179785714Y-135538952D01*
X179690476Y-135491333D01*
X179499999Y-135491333D01*
X179404761Y-135538952D01*
X179357142Y-135586571D01*
X179309523Y-135681810D01*
X154981667Y-136110381D02*
X154981667Y-135110381D01*
X155457857Y-136110381D02*
X155457857Y-135110381D01*
X156029286Y-136110381D01*
X156029286Y-135110381D01*
X156981667Y-135110381D02*
X156505476Y-135110381D01*
X156457857Y-135586571D01*
X156505476Y-135538952D01*
X156600714Y-135491333D01*
X156838810Y-135491333D01*
X156934048Y-135538952D01*
X156981667Y-135586571D01*
X157029286Y-135681810D01*
X157029286Y-135919905D01*
X156981667Y-136015143D01*
X156934048Y-136062762D01*
X156838810Y-136110381D01*
X156600714Y-136110381D01*
X156505476Y-136062762D01*
X156457857Y-136015143D01*
X132130000Y-136110381D02*
X132130000Y-135110381D01*
X132606190Y-136110381D02*
X132606190Y-135110381D01*
X133177619Y-136110381D01*
X133177619Y-135110381D01*
X134082381Y-135443714D02*
X134082381Y-136110381D01*
X133844285Y-135062762D02*
X133606190Y-135777048D01*
X134225238Y-135777048D01*
X109278333Y-136110381D02*
X109278333Y-135110381D01*
X109754523Y-136110381D02*
X109754523Y-135110381D01*
X110325952Y-136110381D01*
X110325952Y-135110381D01*
X110706904Y-135110381D02*
X111325952Y-135110381D01*
X110992618Y-135491333D01*
X111135476Y-135491333D01*
X111230714Y-135538952D01*
X111278333Y-135586571D01*
X111325952Y-135681810D01*
X111325952Y-135919905D01*
X111278333Y-136015143D01*
X111230714Y-136062762D01*
X111135476Y-136110381D01*
X110849761Y-136110381D01*
X110754523Y-136062762D01*
X110706904Y-136015143D01*
X86426667Y-136110381D02*
X86426667Y-135110381D01*
X86902857Y-136110381D02*
X86902857Y-135110381D01*
X87474286Y-136110381D01*
X87474286Y-135110381D01*
X87902857Y-135205619D02*
X87950476Y-135158000D01*
X88045714Y-135110381D01*
X88283810Y-135110381D01*
X88379048Y-135158000D01*
X88426667Y-135205619D01*
X88474286Y-135300857D01*
X88474286Y-135396095D01*
X88426667Y-135538952D01*
X87855238Y-136110381D01*
X88474286Y-136110381D01*
X63575000Y-136110381D02*
X63575000Y-135110381D01*
X64051190Y-136110381D02*
X64051190Y-135110381D01*
X64622619Y-136110381D01*
X64622619Y-135110381D01*
X65622619Y-136110381D02*
X65051190Y-136110381D01*
X65336904Y-136110381D02*
X65336904Y-135110381D01*
X65241666Y-135253238D01*
X65146428Y-135348476D01*
X65051190Y-135396095D01*
X54120834Y-142665143D02*
X54073215Y-142712762D01*
X53930358Y-142760381D01*
X53835120Y-142760381D01*
X53692262Y-142712762D01*
X53597024Y-142617524D01*
X53549405Y-142522286D01*
X53501786Y-142331810D01*
X53501786Y-142188952D01*
X53549405Y-141998476D01*
X53597024Y-141903238D01*
X53692262Y-141808000D01*
X53835120Y-141760381D01*
X53930358Y-141760381D01*
X54073215Y-141808000D01*
X54120834Y-141855619D01*
X55073215Y-142760381D02*
X54501786Y-142760381D01*
X54787500Y-142760381D02*
X54787500Y-141760381D01*
X54692262Y-141903238D01*
X54597024Y-141998476D01*
X54501786Y-142046095D01*
X75834168Y-142665143D02*
X75786549Y-142712762D01*
X75643692Y-142760381D01*
X75548454Y-142760381D01*
X75405596Y-142712762D01*
X75310358Y-142617524D01*
X75262739Y-142522286D01*
X75215120Y-142331810D01*
X75215120Y-142188952D01*
X75262739Y-141998476D01*
X75310358Y-141903238D01*
X75405596Y-141808000D01*
X75548454Y-141760381D01*
X75643692Y-141760381D01*
X75786549Y-141808000D01*
X75834168Y-141855619D01*
X76215120Y-141855619D02*
X76262739Y-141808000D01*
X76357977Y-141760381D01*
X76596073Y-141760381D01*
X76691311Y-141808000D01*
X76738930Y-141855619D01*
X76786549Y-141950857D01*
X76786549Y-142046095D01*
X76738930Y-142188952D01*
X76167501Y-142760381D01*
X76786549Y-142760381D01*
X98685834Y-142665143D02*
X98638215Y-142712762D01*
X98495358Y-142760381D01*
X98400120Y-142760381D01*
X98257262Y-142712762D01*
X98162024Y-142617524D01*
X98114405Y-142522286D01*
X98066786Y-142331810D01*
X98066786Y-142188952D01*
X98114405Y-141998476D01*
X98162024Y-141903238D01*
X98257262Y-141808000D01*
X98400120Y-141760381D01*
X98495358Y-141760381D01*
X98638215Y-141808000D01*
X98685834Y-141855619D01*
X99019167Y-141760381D02*
X99638215Y-141760381D01*
X99304881Y-142141333D01*
X99447739Y-142141333D01*
X99542977Y-142188952D01*
X99590596Y-142236571D01*
X99638215Y-142331810D01*
X99638215Y-142569905D01*
X99590596Y-142665143D01*
X99542977Y-142712762D01*
X99447739Y-142760381D01*
X99162024Y-142760381D01*
X99066786Y-142712762D01*
X99019167Y-142665143D01*
X121537501Y-142665143D02*
X121489882Y-142712762D01*
X121347025Y-142760381D01*
X121251787Y-142760381D01*
X121108929Y-142712762D01*
X121013691Y-142617524D01*
X120966072Y-142522286D01*
X120918453Y-142331810D01*
X120918453Y-142188952D01*
X120966072Y-141998476D01*
X121013691Y-141903238D01*
X121108929Y-141808000D01*
X121251787Y-141760381D01*
X121347025Y-141760381D01*
X121489882Y-141808000D01*
X121537501Y-141855619D01*
X122394644Y-142093714D02*
X122394644Y-142760381D01*
X122156548Y-141712762D02*
X121918453Y-142427048D01*
X122537501Y-142427048D01*
X144389168Y-142665143D02*
X144341549Y-142712762D01*
X144198692Y-142760381D01*
X144103454Y-142760381D01*
X143960596Y-142712762D01*
X143865358Y-142617524D01*
X143817739Y-142522286D01*
X143770120Y-142331810D01*
X143770120Y-142188952D01*
X143817739Y-141998476D01*
X143865358Y-141903238D01*
X143960596Y-141808000D01*
X144103454Y-141760381D01*
X144198692Y-141760381D01*
X144341549Y-141808000D01*
X144389168Y-141855619D01*
X145293930Y-141760381D02*
X144817739Y-141760381D01*
X144770120Y-142236571D01*
X144817739Y-142188952D01*
X144912977Y-142141333D01*
X145151073Y-142141333D01*
X145246311Y-142188952D01*
X145293930Y-142236571D01*
X145341549Y-142331810D01*
X145341549Y-142569905D01*
X145293930Y-142665143D01*
X145246311Y-142712762D01*
X145151073Y-142760381D01*
X144912977Y-142760381D01*
X144817739Y-142712762D01*
X144770120Y-142665143D01*
X167240834Y-142665143D02*
X167193215Y-142712762D01*
X167050358Y-142760381D01*
X166955120Y-142760381D01*
X166812262Y-142712762D01*
X166717024Y-142617524D01*
X166669405Y-142522286D01*
X166621786Y-142331810D01*
X166621786Y-142188952D01*
X166669405Y-141998476D01*
X166717024Y-141903238D01*
X166812262Y-141808000D01*
X166955120Y-141760381D01*
X167050358Y-141760381D01*
X167193215Y-141808000D01*
X167240834Y-141855619D01*
X168097977Y-141760381D02*
X167907500Y-141760381D01*
X167812262Y-141808000D01*
X167764643Y-141855619D01*
X167669405Y-141998476D01*
X167621786Y-142188952D01*
X167621786Y-142569905D01*
X167669405Y-142665143D01*
X167717024Y-142712762D01*
X167812262Y-142760381D01*
X168002739Y-142760381D01*
X168097977Y-142712762D01*
X168145596Y-142665143D01*
X168193215Y-142569905D01*
X168193215Y-142331810D01*
X168145596Y-142236571D01*
X168097977Y-142188952D01*
X168002739Y-142141333D01*
X167812262Y-142141333D01*
X167717024Y-142188952D01*
X167669405Y-142236571D01*
X167621786Y-142331810D01*
X190092501Y-142665143D02*
X190044882Y-142712762D01*
X189902025Y-142760381D01*
X189806787Y-142760381D01*
X189663929Y-142712762D01*
X189568691Y-142617524D01*
X189521072Y-142522286D01*
X189473453Y-142331810D01*
X189473453Y-142188952D01*
X189521072Y-141998476D01*
X189568691Y-141903238D01*
X189663929Y-141808000D01*
X189806787Y-141760381D01*
X189902025Y-141760381D01*
X190044882Y-141808000D01*
X190092501Y-141855619D01*
X190425834Y-141760381D02*
X191092501Y-141760381D01*
X190663929Y-142760381D01*
X212944168Y-142665143D02*
X212896549Y-142712762D01*
X212753692Y-142760381D01*
X212658454Y-142760381D01*
X212515596Y-142712762D01*
X212420358Y-142617524D01*
X212372739Y-142522286D01*
X212325120Y-142331810D01*
X212325120Y-142188952D01*
X212372739Y-141998476D01*
X212420358Y-141903238D01*
X212515596Y-141808000D01*
X212658454Y-141760381D01*
X212753692Y-141760381D01*
X212896549Y-141808000D01*
X212944168Y-141855619D01*
X213515596Y-142188952D02*
X213420358Y-142141333D01*
X213372739Y-142093714D01*
X213325120Y-141998476D01*
X213325120Y-141950857D01*
X213372739Y-141855619D01*
X213420358Y-141808000D01*
X213515596Y-141760381D01*
X213706073Y-141760381D01*
X213801311Y-141808000D01*
X213848930Y-141855619D01*
X213896549Y-141950857D01*
X213896549Y-141998476D01*
X213848930Y-142093714D01*
X213801311Y-142141333D01*
X213706073Y-142188952D01*
X213515596Y-142188952D01*
X213420358Y-142236571D01*
X213372739Y-142284190D01*
X213325120Y-142379429D01*
X213325120Y-142569905D01*
X213372739Y-142665143D01*
X213420358Y-142712762D01*
X213515596Y-142760381D01*
X213706073Y-142760381D01*
X213801311Y-142712762D01*
X213848930Y-142665143D01*
X213896549Y-142569905D01*
X213896549Y-142379429D01*
X213848930Y-142284190D01*
X213801311Y-142236571D01*
X213706073Y-142188952D01*
X259933334Y-139165143D02*
X259885715Y-139212762D01*
X259742858Y-139260381D01*
X259647620Y-139260381D01*
X259504762Y-139212762D01*
X259409524Y-139117524D01*
X259361905Y-139022286D01*
X259314286Y-138831810D01*
X259314286Y-138688952D01*
X259361905Y-138498476D01*
X259409524Y-138403238D01*
X259504762Y-138308000D01*
X259647620Y-138260381D01*
X259742858Y-138260381D01*
X259885715Y-138308000D01*
X259933334Y-138355619D01*
X260409524Y-139260381D02*
X260600000Y-139260381D01*
X260695239Y-139212762D01*
X260742858Y-139165143D01*
X260838096Y-139022286D01*
X260885715Y-138831810D01*
X260885715Y-138450857D01*
X260838096Y-138355619D01*
X260790477Y-138308000D01*
X260695239Y-138260381D01*
X260504762Y-138260381D01*
X260409524Y-138308000D01*
X260361905Y-138355619D01*
X260314286Y-138450857D01*
X260314286Y-138688952D01*
X260361905Y-138784190D01*
X260409524Y-138831810D01*
X260504762Y-138879429D01*
X260695239Y-138879429D01*
X260790477Y-138831810D01*
X260838096Y-138784190D01*
X260885715Y-138688952D01*
X240700714Y-132383238D02*
X241510238Y-132383238D01*
X241605476Y-132335619D01*
X241653095Y-132288000D01*
X241700714Y-132192762D01*
X241700714Y-132002285D01*
X241653095Y-131907047D01*
X241605476Y-131859428D01*
X241510238Y-131811809D01*
X240700714Y-131811809D01*
X240795952Y-131383238D02*
X240748333Y-131335619D01*
X240700714Y-131240381D01*
X240700714Y-131002285D01*
X240748333Y-130907047D01*
X240795952Y-130859428D01*
X240891190Y-130811809D01*
X240986428Y-130811809D01*
X241129285Y-130859428D01*
X241700714Y-131430857D01*
X241700714Y-130811809D01*
X250322181Y-140817505D02*
X251131705Y-140817505D01*
X251226943Y-140769886D01*
X251274562Y-140722267D01*
X251322181Y-140627029D01*
X251322181Y-140436552D01*
X251274562Y-140341314D01*
X251226943Y-140293695D01*
X251131705Y-140246076D01*
X250322181Y-140246076D01*
X251322181Y-139246076D02*
X251322181Y-139817505D01*
X251322181Y-139531791D02*
X250322181Y-139531791D01*
X250465038Y-139627029D01*
X250560276Y-139722267D01*
X250607895Y-139817505D01*
M02*
